<?xml version="1.0" encoding="UTF-8"?>
<svg width="128" height="128" viewBox="0 0 128 128" xmlns="http://www.w3.org/2000/svg">
  <!-- Background circle with gradient -->
  <defs>
    <linearGradient id="bgGradient" x1="0%" y1="0%" x2="100%" y2="100%">
      <stop offset="0%" style="stop-color:#3B82F6;stop-opacity:1" />
      <stop offset="100%" style="stop-color:#1D4ED8;stop-opacity:1" />
    </linearGradient>
    <linearGradient id="iconGradient" x1="0%" y1="0%" x2="100%" y2="100%">
      <stop offset="0%" style="stop-color:#FFFFFF;stop-opacity:1" />
      <stop offset="100%" style="stop-color:#F3F4F6;stop-opacity:1" />
    </linearGradient>
  </defs>
  
  <!-- Background circle -->
  <circle cx="64" cy="64" r="60" fill="url(#bgGradient)" stroke="#1E40AF" stroke-width="2"/>
  
  <!-- Main icon - stylized "S" with marketplace elements -->
  <g fill="url(#iconGradient)">
    <!-- Stylized "S" shape -->
    <path d="M45 35 C45 35, 55 35, 65 35 C75 35, 85 35, 85 45 C85 55, 75 55, 65 55 C55 55, 45 55, 45 65 C45 75, 55 75, 65 75 C75 75, 85 75, 85 85 C85 95, 75 95, 65 95 C55 95, 45 95, 45 85 C45 75, 55 75, 65 75 C75 75, 85 75, 85 65 C85 55, 75 55, 65 55 C55 55, 45 55, 45 45 C45 35, 55 35, 65 35" 
          stroke="url(#iconGradient)" stroke-width="8" fill="none" stroke-linecap="round"/>
    
    <!-- Small marketplace dots -->
    <circle cx="35" cy="45" r="3" fill="url(#iconGradient)"/>
    <circle cx="93" cy="55" r="3" fill="url(#iconGradient)"/>
    <circle cx="35" cy="75" r="3" fill="url(#iconGradient)"/>
    <circle cx="93" cy="85" r="3" fill="url(#iconGradient)"/>
  </g>
  
  <!-- Subtle inner glow -->
  <circle cx="64" cy="64" r="50" fill="none" stroke="rgba(255,255,255,0.1)" stroke-width="1"/>
</svg> 